<svg width="24" height="25" viewBox="0 0 24 25" fill="none" xmlns="http://www.w3.org/2000/svg">
    <path d="M21.9554 25H5.15536C4.0002 25 2.89234 24.5428 2.07552 23.7289C1.25869 22.9149 0.799805 21.8111 0.799805 20.66V3.92001C0.799805 2.93341 1.19314 1.98721 1.89327 1.28958C2.59341 0.59194 3.543 0.200012 4.53314 0.200012H21.9554C22.2854 0.200012 22.6019 0.330655 22.8353 0.5632C23.0687 0.795745 23.1998 1.11114 23.1998 1.44001V23.76C23.1998 24.0889 23.0687 24.4043 22.8353 24.6368C22.6019 24.8694 22.2854 25 21.9554 25ZM20.7109 22.52V18.8H5.15536C4.66029 18.8 4.1855 18.996 3.83543 19.3448C3.48536 19.6936 3.28869 20.1667 3.28869 20.66C3.28869 21.1533 3.48536 21.6264 3.83543 21.9752C4.1855 22.324 4.66029 22.52 5.15536 22.52H20.7109ZM9.51092 2.68001V12.6L13.8665 10.12L18.222 12.6V2.68001H9.51092Z" fill="black"/>
</svg>
