<svg width="36" height="36" viewBox="0 0 36 36" fill="none" xmlns="http://www.w3.org/2000/svg">
    <path d="M18 0.5C27.6652 0.5 35.5 8.33475 35.5 18C35.5 19.2723 35.3652 20.5113 35.1062 21.7065L31.9878 18.5863C32.1162 15.5146 31.2299 12.486 29.4658 9.96815C27.7017 7.45028 25.1578 5.58311 22.2269 4.65489C19.296 3.72667 16.1411 3.789 13.2491 4.83228C10.3572 5.87556 7.88905 7.84176 6.22577 10.4273C4.5625 13.0129 3.79656 16.0741 4.0462 19.1383C4.29584 22.2026 5.54717 25.0994 7.60703 27.3817C9.66689 29.6639 12.4207 31.2047 15.4434 31.7661C18.4661 32.3275 21.5895 31.8784 24.3315 30.488C24.9994 31.5466 25.9392 32.4066 27.0528 32.9783C24.3231 34.6321 21.1916 35.5044 18 35.5C8.33475 35.5 0.5 27.6653 0.5 18C0.5 8.33475 8.33475 0.5 18 0.5ZM30.25 21.801L32.7245 24.2755C33.2062 24.757 33.5369 25.3686 33.6762 26.0354C33.8154 26.7021 33.7571 27.395 33.5083 28.029C33.2596 28.6631 32.8312 29.2108 32.2758 29.605C31.7204 29.9992 31.062 30.2228 30.3814 30.2484C29.7007 30.2739 29.0275 30.1003 28.444 29.7489C27.8606 29.3974 27.3924 28.8833 27.0968 28.2697C26.8012 27.6561 26.6911 26.9696 26.78 26.2943C26.8688 25.619 27.1528 24.9843 27.597 24.468L27.7755 24.2755L30.25 21.801ZM18 23.25C20.5655 23.25 22.8737 24.3543 24.475 26.1148L22.8213 27.6198C21.4388 27.0685 19.7815 26.75 18 26.75C16.2185 26.75 14.5612 27.0703 13.1787 27.618L11.525 26.113C12.3444 25.2099 13.3439 24.4886 14.4591 23.9954C15.5744 23.5023 16.7806 23.2484 18 23.25ZM11.875 14.5C12.5712 14.5 13.2389 14.7766 13.7312 15.2688C14.2234 15.7611 14.5 16.4288 14.5 17.125C14.5 17.8212 14.2234 18.4889 13.7312 18.9812C13.2389 19.4734 12.5712 19.75 11.875 19.75C11.1788 19.75 10.5111 19.4734 10.0188 18.9812C9.52656 18.4889 9.25 17.8212 9.25 17.125C9.25 16.4288 9.52656 15.7611 10.0188 15.2688C10.5111 14.7766 11.1788 14.5 11.875 14.5ZM24.125 14.5C24.8212 14.5 25.4889 14.7766 25.9812 15.2688C26.4734 15.7611 26.75 16.4288 26.75 17.125C26.75 17.8212 26.4734 18.4889 25.9812 18.9812C25.4889 19.4734 24.8212 19.75 24.125 19.75C23.4288 19.75 22.7611 19.4734 22.2688 18.9812C21.7766 18.4889 21.5 17.8212 21.5 17.125C21.5 16.4288 21.7766 15.7611 22.2688 15.2688C22.7611 14.7766 23.4288 14.5 24.125 14.5V14.5Z" fill="black"/>
</svg>
