<svg width="40" height="40" viewBox="0 0 40 40" fill="none" xmlns="http://www.w3.org/2000/svg">
    <path d="M20 32.5C13.0963 32.5 7.5 26.9037 7.5 20C7.5 13.0963 13.0963 7.5 20 7.5C26.9037 7.5 32.5 13.0963 32.5 20C32.5 26.9037 26.9037 32.5 20 32.5ZM20 30C22.6522 30 25.1957 28.9464 27.0711 27.0711C28.9464 25.1957 30 22.6522 30 20C30 17.3478 28.9464 14.8043 27.0711 12.9289C25.1957 11.0536 22.6522 10 20 10C17.3478 10 14.8043 11.0536 12.9289 12.9289C11.0536 14.8043 10 17.3478 10 20C10 22.6522 11.0536 25.1957 12.9289 27.0711C14.8043 28.9464 17.3478 30 20 30V30ZM18.2775 15.5187L24.3763 19.5837C24.4448 19.6294 24.5011 19.6913 24.54 19.7639C24.5789 19.8365 24.5992 19.9176 24.5992 20C24.5992 20.0824 24.5789 20.1635 24.54 20.2361C24.5011 20.3087 24.4448 20.3706 24.3763 20.4163L18.2763 24.4813C18.201 24.5311 18.1137 24.5597 18.0236 24.5639C17.9335 24.5682 17.8438 24.548 17.7643 24.5054C17.6847 24.4629 17.6181 24.3996 17.5716 24.3223C17.525 24.245 17.5003 24.1565 17.5 24.0663V15.9337C17.5002 15.8433 17.5249 15.7546 17.5714 15.6771C17.618 15.5996 17.6848 15.5362 17.7646 15.4936C17.8443 15.451 17.9342 15.4308 18.0245 15.4353C18.1148 15.4397 18.2023 15.4686 18.2775 15.5187V15.5187Z" fill="#050505"/>
</svg>
