<svg width="14" height="14" viewBox="0 0 14 14" fill="none" xmlns="http://www.w3.org/2000/svg">
    <path d="M7 13.25C3.54813 13.25 0.75 10.4519 0.75 7C0.75 3.54813 3.54813 0.75 7 0.75C10.4519 0.75 13.25 3.54813 13.25 7C13.25 10.4519 10.4519 13.25 7 13.25ZM6.13875 4.75937C6.10113 4.73428 6.05742 4.71985 6.01225 4.71764C5.96709 4.71542 5.92217 4.7255 5.88228 4.74679C5.84239 4.76808 5.80902 4.79979 5.78572 4.83855C5.76243 4.87731 5.75008 4.92166 5.75 4.96687V9.03313C5.75008 9.07834 5.76243 9.12269 5.78572 9.16145C5.80902 9.20021 5.84239 9.23192 5.88228 9.25321C5.92217 9.2745 5.96709 9.28458 6.01225 9.28236C6.05742 9.28015 6.10113 9.26572 6.13875 9.24063L9.18813 7.20813C9.22242 7.1853 9.25054 7.15436 9.26999 7.11805C9.28944 7.08174 9.29962 7.04119 9.29962 7C9.29962 6.95881 9.28944 6.91826 9.26999 6.88195C9.25054 6.84564 9.22242 6.8147 9.18813 6.79187L6.13813 4.75937H6.13875Z" fill="#050505"/>
</svg>
