<svg width="40" height="40" viewBox="0 0 40 40" fill="none" xmlns="http://www.w3.org/2000/svg">
    <path d="M23.25 15H31.25C31.913 15 32.5489 15.2634 33.0178 15.7322C33.4866 16.2011 33.75 16.837 33.75 17.5V20.13C33.7503 20.4567 33.6866 20.7803 33.5625 21.0825L29.6938 30.4763C29.5994 30.7053 29.4391 30.9011 29.2332 31.0389C29.0274 31.1766 28.7852 31.2501 28.5375 31.25H7.5C7.16848 31.25 6.85054 31.1183 6.61612 30.8839C6.3817 30.6495 6.25 30.3315 6.25 30V17.5C6.25 17.1685 6.3817 16.8505 6.61612 16.6161C6.85054 16.3817 7.16848 16.25 7.5 16.25H11.8525C12.0526 16.2501 12.2498 16.2021 12.4275 16.11C12.6053 16.018 12.7583 15.8847 12.8738 15.7213L19.69 6.0625C19.7762 5.94039 19.9032 5.8532 20.0482 5.81674C20.1931 5.78028 20.3463 5.79696 20.48 5.86375L22.7475 6.9975C23.3856 7.31645 23.8954 7.84414 24.1922 8.4929C24.4889 9.14165 24.5548 9.8724 24.3788 10.5638L23.25 15ZM13.75 18.235V28.75H27.7L31.25 20.13V17.5H23.25C22.8693 17.4999 22.4935 17.4129 22.1515 17.2456C21.8095 17.0782 21.5103 16.835 21.2766 16.5344C21.0429 16.2338 20.881 15.8837 20.8031 15.511C20.7253 15.1383 20.7336 14.7528 20.8275 14.3838L21.9563 9.94875C21.9916 9.81041 21.9785 9.66414 21.9191 9.53429C21.8598 9.40443 21.7577 9.29881 21.63 9.235L20.8038 8.8225L14.9163 17.1625C14.6038 17.605 14.2038 17.9675 13.75 18.235V18.235ZM11.25 18.75H8.75V28.75H11.25V18.75Z" fill="#050505"/>
</svg>
