<svg width="12" height="14" viewBox="0 0 12 14" fill="none" xmlns="http://www.w3.org/2000/svg">
    <path d="M2.48875 3.23C3.48484 2.43192 4.72363 1.99797 6 2C7.32813 2 8.54875 2.46 9.51125 3.23L10.4194 2.32188L11.3031 3.20563L10.395 4.11375C11.0561 4.94134 11.47 5.93877 11.5893 6.99124C11.7085 8.04372 11.5281 9.10847 11.0689 10.063C10.6097 11.0175 9.89038 11.8229 8.99363 12.3866C8.09689 12.9503 7.05921 13.2494 6 13.2494C4.9408 13.2494 3.90311 12.9503 3.00637 12.3866C2.10963 11.8229 1.39027 11.0175 0.931079 10.063C0.471888 9.10847 0.291526 8.04372 0.41075 6.99124C0.529974 5.93877 0.943938 4.94134 1.605 4.11375L0.696878 3.20625L1.58063 2.3225L2.48875 3.23063V3.23ZM6.625 7V4.18438L3.5 8.25H5.375V11.0625L8.5 7H6.625ZM3.5 0.125H8.5V1.375H3.5V0.125Z" fill="#050505"/>
</svg>
